<svg xmlns="http://www.w3.org/2000/svg" version="1.1" width="500" height="500">
<path d="M0 0 C8.00730641 0.01496228 16.0138482 0.05694196 24.02079391 0.13209057 C27.74001657 0.16617645 31.45883651 0.19144148 35.17822266 0.19555664 C38.77721385 0.19987971 42.37529949 0.22866704 45.97400665 0.27343178 C47.99428137 0.29247305 50.01473978 0.28708862 52.03509521 0.28105164 C63.9556181 0.4668306 74.83506639 4.10797383 84 12 C84 12.66 84 13.32 84 14 C84.66 14 85.32 14 86 14 C92.28008553 21.13083603 97.43577237 30.29099165 97 40 C97.66 40 98.32 40 99 40 C99.309375 38.824375 99.309375 38.824375 99.625 37.625 C102.00924289 31.33926874 105.64622659 25.14860398 110 20 C110.66 20 111.32 20 112 20 C112 19.34 112 18.68 112 18 C112.66 18 113.32 18 114 18 C114 17.34 114 16.68 114 16 C129.37824278 2.79920753 147.26486038 -1.27056523 167 0 C180.2237896 1.64167775 192.65342081 7.45023431 202 17 C201.41982949 20.40571244 200.34879518 22.00400329 197.875 24.3828125 C196.93914062 25.29740234 196.93914062 25.29740234 195.984375 26.23046875 C195.32953125 26.85566406 194.6746875 27.48085937 194 28.125 C192.70625147 29.3754538 191.41448494 30.62796248 190.125 31.8828125 C189.26261719 32.70869873 189.26261719 32.70869873 188.3828125 33.55126953 C186.89195722 34.97103318 186.89195722 34.97103318 186 37 C183.03824877 36.38722388 181.61941217 35.74627478 179 34 C179 33.34 179 32.68 179 32 C178.43667969 31.8659375 177.87335938 31.731875 177.29296875 31.59375 C174.93168011 30.98230899 172.63398479 30.24766016 170.3125 29.5 C160.78417876 26.67215028 151.07684524 25.7083755 142 30.625 C141.34 31.07875 140.68 31.5325 140 32 C139.01 32 138.02 32 137 32 C137 32.66 137 33.32 137 34 C133.53846154 37 133.53846154 37 131 37 C131 37.66 131 38.32 131 39 C130.34 39 129.68 39 129 39 C129 39.66 129 40.32 129 41 C128.34 41 127.68 41 127 41 C126.731875 41.804375 126.46375 42.60875 126.1875 43.4375 C125.5399729 45.38008131 124.8909396 47.32217334 124.234375 49.26171875 C123.97140625 50.04160156 123.7084375 50.82148438 123.4375 51.625 C123.18871094 52.35976562 122.93992187 53.09453125 122.68359375 53.8515625 C119.30345346 64.47486057 121.1521488 74.60874487 126.125 84.5 C126.74375 85.655 127.3625 86.81 128 88 C128.33 88.99 128.66 89.98 129 91 C129.66 91 130.32 91 131 91 C131 91.66 131 92.32 131 93 C131.53753906 93.26683594 132.07507813 93.53367187 132.62890625 93.80859375 C134.37204144 94.68446893 136.1080353 95.57459327 137.83984375 96.47265625 C139.37318359 97.25962891 139.37318359 97.25962891 140.9375 98.0625 C141.95714844 98.58972656 142.97679687 99.11695313 144.02734375 99.66015625 C152.26823882 103.374515 162.56468843 103.12673464 171 100 C173.15310106 98.99802402 175.25151 97.94240291 177.3359375 96.8046875 C179 96 179 96 181 96 C181 95.34 181 94.68 181 94 C182.32 93.34 183.64 92.68 185 92 C185.72316406 92.74056641 185.72316406 92.74056641 186.4609375 93.49609375 C187.09257812 94.13675781 187.72421875 94.77742188 188.375 95.4375 C189.00148438 96.07558594 189.62796875 96.71367187 190.2734375 97.37109375 C191.91723061 99.07882176 191.91723061 99.07882176 194 100 C194 100.66 194 101.32 194 102 C194.66 102 195.32 102 196 102 C196 102.66 196 103.32 196 104 C196.66 104 197.32 104 198 104 C200.1875 106.1875 200.1875 106.1875 202 109 C201.8296827 112.14586074 201.39962351 113.5793897 199.21484375 115.87890625 C194.33087901 119.48952169 189.63169207 122.69792236 184 125 C183.18273437 125.37253906 182.36546875 125.74507813 181.5234375 126.12890625 C167.45152427 131.57181609 148.40086772 131.36522881 134.3203125 126.0703125 C132.1901496 125.0877121 130.08443106 124.07614813 128 123 C128 122.34 128 121.68 128 121 C126.92685547 120.87431641 126.92685547 120.87431641 125.83203125 120.74609375 C115.7259064 118.08365258 107.36313127 106.7020362 102.28125 98.0859375 C97.54463049 89.10029167 94.95146217 80.08549895 94 70 C93.54109375 70.59167969 93.0821875 71.18335938 92.609375 71.79296875 C91.34324642 73.42350829 90.074929 75.05235 88.8046875 76.6796875 C87.48177237 78.38057838 86.17398071 80.09326083 84.875 81.8125 C78.54228545 89.20066698 69.26121641 92.69024243 60 95 C56.45141602 95.22705078 56.45141602 95.22705078 52.75390625 95.1953125 C52.09792953 95.1924826 51.44195282 95.18965271 50.76609802 95.18673706 C48.69803591 95.17565984 46.63042827 95.15058063 44.5625 95.125 C43.14909485 95.11495402 41.73568283 95.10583102 40.32226562 95.09765625 C36.88136606 95.07576184 33.44072748 95.04132051 30 95 C29.97113463 90.68751391 29.95324745 86.37505238 29.9375 82.0625 C29.92912109 80.83080078 29.92074219 79.59910156 29.91210938 78.33007812 C29.90727539 76.5753418 29.90727539 76.5753418 29.90234375 74.78515625 C29.89448853 73.15912476 29.89448853 73.15912476 29.88647461 71.50024414 C30 69 30 69 31 68 C32.84367979 67.87829377 34.6916337 67.82027777 36.5390625 67.7890625 C38.24642578 67.74652344 38.24642578 67.74652344 39.98828125 67.703125 C42.38917709 67.65154829 44.79023876 67.60713215 47.19140625 67.5703125 C53.56532795 67.39823812 58.35523817 67.01569468 64 64 C64.99 63.67 65.98 63.34 67 63 C68.1950483 60.42825684 68.1950483 60.42825684 69 57 C69.31517578 55.85917969 69.31517578 55.85917969 69.63671875 54.6953125 C71.09288094 48.74081489 71.44038603 43.72960199 69 38 C66.34189474 33.9273475 63.57146812 30.82694873 59 29 C48.12975795 27.18829299 37.01263285 27.40787529 26 27 C26 60.66 26 94.32 26 129 C23.35177988 130.32411006 21.51061806 130.01892401 18.5546875 129.87890625 C17.47832031 129.83056641 16.40195313 129.78222656 15.29296875 129.73242188 C14.16503906 129.67634766 13.03710938 129.62027344 11.875 129.5625 C10.73933594 129.51029297 9.60367188 129.45808594 8.43359375 129.40429688 C5.62213369 129.27435544 2.81100535 129.13938086 0 129 C-0.85864163 121.83963999 -1.14382234 114.79468303 -1.12939453 107.58691406 C-1.13114685 106.49293808 -1.13289917 105.3989621 -1.13470459 104.27183533 C-1.13907562 100.68641535 -1.13620274 97.10104541 -1.1328125 93.515625 C-1.13348671 91.01080313 -1.13445771 88.50598132 -1.13571167 86.00115967 C-1.13736981 80.09770875 -1.13388928 74.1942758 -1.1285609 68.29082751 C-1.12426436 62.91874164 -1.12731011 57.54667948 -1.1321975 52.17459512 C-1.1372901 46.34187451 -1.13674159 40.50916666 -1.13381577 34.67644501 C-1.13314926 32.20291896 -1.13396526 29.72939205 -1.13629532 27.255867 C-1.13883584 23.80239074 -1.13496194 20.34897926 -1.12939453 16.89550781 C-1.13141876 15.87615646 -1.13344299 14.85680511 -1.13552856 13.80656433 C-1.12144859 9.09000071 -0.98379876 4.6379346 0 0 Z " fill="#F7F7F7" transform="translate(97,185)"/>
<path d="M0 0 C1.44921875 1.9921875 1.44921875 1.9921875 1.25097656 4.38110352 C0.33595881 7.36104104 -0.7034475 8.61031035 -2.9296875 10.76171875 C-3.60322266 11.42236328 -4.27675781 12.08300781 -4.97070312 12.76367188 C-5.67775391 13.43720703 -6.38480469 14.11074219 -7.11328125 14.8046875 C-7.82419922 15.49755859 -8.53511719 16.19042969 -9.26757812 16.90429688 C-11.01996437 18.6096392 -12.78099594 20.30493926 -14.55078125 21.9921875 C-17.44145125 20.59381419 -19.75876745 19.09755736 -22.23828125 17.0546875 C-26.42937059 13.85294453 -30.50070212 12.35390527 -35.55078125 10.9921875 C-36.90495823 10.59638945 -38.2591259 10.20055953 -39.61328125 9.8046875 C-40.58265625 9.5365625 -41.55203125 9.2684375 -42.55078125 8.9921875 C-43.45980064 5.94375885 -43.61251492 3.39557114 -43.4296875 0.2265625 C-43.38134766 -0.66289062 -43.33300781 -1.55234375 -43.28320312 -2.46875 C-43.22712891 -3.38914063 -43.17105469 -4.30953125 -43.11328125 -5.2578125 C-43.06107422 -6.19367188 -43.00886719 -7.12953125 -42.95507812 -8.09375 C-42.825713 -10.39880137 -42.69076091 -12.70338539 -42.55078125 -15.0078125 C-43.22625 -14.80285156 -43.90171875 -14.59789062 -44.59765625 -14.38671875 C-45.4896875 -14.11730469 -46.38171875 -13.84789062 -47.30078125 -13.5703125 C-48.1825 -13.30347656 -49.06421875 -13.03664062 -49.97265625 -12.76171875 C-52.1564396 -12.12312756 -54.33913623 -11.54005417 -56.55078125 -11.0078125 C-56.55078125 -10.3478125 -56.55078125 -9.6878125 -56.55078125 -9.0078125 C-57.45828125 -8.3478125 -58.36578125 -7.6878125 -59.30078125 -7.0078125 C-64.01640606 -3.2196684 -65.93298438 2.24375705 -66.8984375 8.1015625 C-67.13422691 13.22741924 -65.98556077 18.47453019 -63.55078125 22.9921875 C-61.03326249 24.65552835 -61.03326249 24.65552835 -58.55078125 24.9921875 C-58.55078125 25.6521875 -58.55078125 26.3121875 -58.55078125 26.9921875 C-58.02355469 27.11335938 -57.49632812 27.23453125 -56.953125 27.359375 C-53.30393202 28.32062583 -49.7541047 29.5638938 -46.17944336 30.76928711 C-42.18496606 32.11399535 -38.18531206 33.4390281 -34.17578125 34.73828125 C-33.25466553 35.03911621 -32.3335498 35.33995117 -31.38452148 35.64990234 C-29.57828809 36.2396214 -27.77056701 36.8248091 -25.96118164 37.40478516 C-20.55257708 39.18034497 -15.57380162 41.32317176 -10.55078125 43.9921875 C-9.21894097 44.66183195 -7.88598393 45.3292727 -6.55078125 45.9921875 C-6.55078125 46.6521875 -6.55078125 47.3121875 -6.55078125 47.9921875 C-4.57078125 48.4871875 -4.57078125 48.4871875 -2.55078125 48.9921875 C-2.55078125 49.6521875 -2.55078125 50.3121875 -2.55078125 50.9921875 C-1.95652344 51.22164063 -1.36226563 51.45109375 -0.75 51.6875 C2.03887099 53.34199895 3.02341441 55.07189926 4.63671875 57.8671875 C5.14589844 58.73085938 5.65507812 59.59453125 6.1796875 60.484375 C10.01738518 68.06530396 9.67768659 79.77024733 7.51171875 87.8671875 C3.28645982 98.19340441 -6.26354105 104.91969307 -16.19238281 109.10595703 C-24.0781499 111.96417098 -31.14003055 112.60197271 -39.48828125 112.4921875 C-40.66068359 112.50765625 -41.83308594 112.523125 -43.04101562 112.5390625 C-53.89895528 112.49109811 -63.91885971 110.15595111 -73.17578125 104.3671875 C-74.13742187 103.77679688 -75.0990625 103.18640625 -76.08984375 102.578125 C-77.92034222 101.39847043 -79.73883826 100.20014949 -81.55078125 98.9921875 C-81.55078125 98.3321875 -81.55078125 97.6721875 -81.55078125 96.9921875 C-82.21078125 96.9921875 -82.87078125 96.9921875 -83.55078125 96.9921875 C-83.55078125 96.3321875 -83.55078125 95.6721875 -83.55078125 94.9921875 C-84.87078125 94.3321875 -86.19078125 93.6721875 -87.55078125 92.9921875 C-87.55078125 92.3321875 -87.55078125 91.6721875 -87.55078125 90.9921875 C-88.21078125 90.9921875 -88.87078125 90.9921875 -89.55078125 90.9921875 C-89.12027455 86.58211888 -86.12907585 84.16218177 -83.11328125 81.2421875 C-82.60990234 80.73558594 -82.10652344 80.22898437 -81.58789062 79.70703125 C-77.81797507 75.9921875 -77.81797507 75.9921875 -75.55078125 75.9921875 C-75.55078125 75.3321875 -75.55078125 74.6721875 -75.55078125 73.9921875 C-74.89078125 73.9921875 -74.23078125 73.9921875 -73.55078125 73.9921875 C-73.55078125 73.3321875 -73.55078125 72.6721875 -73.55078125 71.9921875 C-69.98976453 72.59371059 -68.04312466 74.00131633 -65.30078125 76.3046875 C-57.90377136 82.19579147 -50.70536707 84.77085418 -41.55078125 86.9921875 C-40.30166458 94.64302708 -40.46024699 102.26659736 -40.55078125 109.9921875 C-38.79778413 109.39677296 -37.04848377 108.79046836 -35.30078125 108.1796875 C-34.32625 107.84324219 -33.35171875 107.50679688 -32.34765625 107.16015625 C-29.68540537 106.04840623 -27.81583036 104.74108604 -25.55078125 102.9921875 C-24.89078125 102.9921875 -24.23078125 102.9921875 -23.55078125 102.9921875 C-23.55078125 102.3321875 -23.55078125 101.6721875 -23.55078125 100.9921875 C-22.89078125 100.9921875 -22.23078125 100.9921875 -21.55078125 100.9921875 C-21.28265625 100.2909375 -21.01453125 99.5896875 -20.73828125 98.8671875 C-19.55078125 95.9921875 -19.55078125 95.9921875 -17.92578125 93.4296875 C-15.33583708 86.95482707 -16.02215766 79.71073474 -17.55078125 72.9921875 C-18.21078125 72.9921875 -18.87078125 72.9921875 -19.55078125 72.9921875 C-19.55078125 72.3321875 -19.55078125 71.6721875 -19.55078125 70.9921875 C-20.12199707 70.70980225 -20.69321289 70.42741699 -21.28173828 70.13647461 C-22.73096579 69.4056236 -24.17076956 68.65556536 -25.59716797 67.88110352 C-32.98060983 63.9658838 -40.73986962 61.44891649 -48.67578125 58.9296875 C-64.99115822 53.73445474 -81.24091549 47.89781849 -89.98828125 32.0546875 C-93.11187391 24.17068507 -92.94266438 14.46785409 -90.4453125 6.4375 C-85.03997383 -5.18470271 -76.01520553 -10.27982904 -64.55078125 -15.0078125 C-41.14746899 -22.23577425 -18.21186708 -15.31958103 0 0 Z " fill="#F4F4F4" transform="translate(394.55078125,202.0078125)"/>
<path d="M0 0 C2 2 2 2 2 5 C6.95 3.515 6.95 3.515 12 2 C11.34 3.65 10.68 5.3 10 7 C6.04 7 2.08 7 -2 7 C-1.34 6.67 -0.68 6.34 0 6 C0 4.02 0 2.04 0 0 Z " fill="#B1B1B1" transform="translate(352,307)"/>
<path d="M0 0 C5.61 0 11.22 0 17 0 C17 0.33 17 0.66 17 1 C16.20335937 1.12117187 15.40671875 1.24234375 14.5859375 1.3671875 C6.65498622 2.61883475 6.65498622 2.61883475 -1 5 C-1 4.34 -1 3.68 -1 3 C-0.01 3 0.98 3 2 3 C2 2.34 2 1.68 2 1 C1.34 0.67 0.68 0.34 0 0 Z " fill="#A9A8A8" transform="translate(342,185)"/>
<path d="M0 0 C3.63 0 7.26 0 11 0 C11 0.66 11 1.32 11 2 C10.01 2 9.02 2 8 2 C7.67 2.99 7.34 3.98 7 5 C5.68 4.34 4.36 3.68 3 3 C3 2.34 3 1.68 3 1 C2.01 0.67 1.02 0.34 0 0 Z " fill="#E4E3E3" transform="translate(333,186)"/>
<path d="M0 0 C0.99 0.33 1.98 0.66 3 1 C1.60755361 3.78489278 -0.55991988 5.12301529 -3 7 C-3.66 6.34 -4.32 5.68 -5 5 C-4.34 5 -3.68 5 -3 5 C-3 4.34 -3 3.68 -3 3 C-2.34 3 -1.68 3 -1 3 C-0.67 2.01 -0.34 1.02 0 0 Z " fill="#B3B3B3" transform="translate(374,300)"/>
</svg>